<svg xmlns="http://www.w3.org/2000/svg" xmlns:xlink="http://www.w3.org/1999/xlink" contentStyleType="text/css" data-diagram-type="DESCRIPTION" height="480px" preserveAspectRatio="none" style="width:935px;height:480px;background:#FFFFFF;" version="1.1" viewBox="0 0 935 480" width="935px" zoomAndPan="magnify"><?plantuml 1.2026.5?><defs/><g><g class="title" data-source-line="2"><text fill="#000000" font-family="sans-serif" font-size="14" font-weight="700" lengthAdjust="spacing" textLength="295.7773" x="316.3613" y="23.5352">elsa-broker &#8212; Elsa + Broker deployment</text></g><!--cluster broker--><g class="cluster" data-qualified-name="broker" data-source-line="6" id="ent0002"><polygon fill="none" points="80.5025,253.4883,90.5025,243.4883,550.5025,243.4883,550.5025,360.4883,540.5025,370.4883,80.5025,370.4883,80.5025,253.4883" style="stroke:#181818;stroke-width:1;stroke-linejoin:miter;stroke-miterlimit:10;"/><line style="stroke:#181818;stroke-width:1;" x1="540.5025" x2="550.5025" y1="253.4883" y2="243.4883"/><line style="stroke:#181818;stroke-width:1;" x1="80.5025" x2="540.5025" y1="253.4883" y2="253.4883"/><line style="stroke:#181818;stroke-width:1;" x1="540.5025" x2="540.5025" y1="253.4883" y2="370.4883"/><text fill="#000000" font-family="sans-serif" font-size="14" font-weight="700" lengthAdjust="spacing" textLength="146.9795" x="238.0128" y="270.0234">elsa-broker (.NET 9)</text></g><!--cluster elsa--><g class="cluster" data-qualified-name="elsa" data-source-line="13" id="ent0006"><polygon fill="none" points="345.5025,59.4883,355.5025,49.4883,931.5025,49.4883,931.5025,166.4883,921.5025,176.4883,345.5025,176.4883,345.5025,59.4883" style="stroke:#181818;stroke-width:1;stroke-linejoin:miter;stroke-miterlimit:10;"/><line style="stroke:#181818;stroke-width:1;" x1="921.5025" x2="931.5025" y1="59.4883" y2="49.4883"/><line style="stroke:#181818;stroke-width:1;" x1="345.5025" x2="921.5025" y1="59.4883" y2="59.4883"/><line style="stroke:#181818;stroke-width:1;" x1="921.5025" x2="921.5025" y1="59.4883" y2="176.4883"/><text fill="#000000" font-family="sans-serif" font-size="14" font-weight="700" lengthAdjust="spacing" textLength="125.7539" x="571.6256" y="76.0234">Elsa 3 (container)</text></g><!--entity client--><g class="entity" data-qualified-name="client" data-source-line="4" id="ent0001"><ellipse cx="43.275" cy="98.9883" fill="#F1F1F1" rx="8" ry="8" style="stroke:#181818;stroke-width:0.5;"/><path d="M43.275,106.9883 L43.275,133.9883 M30.275,114.9883 L56.275,114.9883 M43.275,133.9883 L30.275,148.9883 M43.275,133.9883 L56.275,148.9883" fill="none" style="stroke:#181818;stroke-width:0.5;"/><text fill="#000000" font-family="sans-serif" font-size="14" lengthAdjust="spacing" textLength="39.5049" x="18.0025" y="164.0234">Client</text><text fill="#000000" font-family="sans-serif" font-size="14" lengthAdjust="spacing" textLength="50.5449" x="18.0025" y="180.5117">(server)</text></g><!--entity sql--><g class="entity" data-qualified-name="sql" data-source-line="11" id="ent0005"><path d="M95.0025,427.4883 C95.0025,417.4883 214.2955,417.4883 214.2955,417.4883 C214.2955,417.4883 333.5885,417.4883 333.5885,427.4883 L333.5885,469.4648 C333.5885,479.4648 214.2955,479.4648 214.2955,479.4648 C214.2955,479.4648 95.0025,479.4648 95.0025,469.4648 L95.0025,427.4883" fill="#F1F1F1" style="stroke:#181818;stroke-width:0.5;"/><path d="M95.0025,427.4883 C95.0025,437.4883 214.2955,437.4883 214.2955,437.4883 C214.2955,437.4883 333.5885,437.4883 333.5885,427.4883" fill="none" style="stroke:#181818;stroke-width:0.5;"/><text fill="#000000" font-family="sans-serif" font-size="14" lengthAdjust="spacing" textLength="72.1533" x="105.0025" y="455.0234">SQL Server</text><text fill="#000000" font-family="sans-serif" font-size="14" lengthAdjust="spacing" textLength="218.5859" x="105.0025" y="471.5117">audit &#183; outbox/inbox &#183; transport</text></g><!--entity wf--><g class="entity" data-qualified-name="wf" data-source-line="18" id="ent0009"><path d="M89.5025,101.4883 L130.5025,101.4883 A3.75,3.75 0 0 1 133.0025,103.9883 L140.0025,122.4883 L231.2672,122.4883 A2.5,2.5 0 0 1 233.7672,124.9883 L233.7672,169.9648 A2.5,2.5 0 0 1 231.2672,172.4648 L89.5025,172.4648 A2.5,2.5 0 0 1 87.0025,169.9648 L87.0025,103.9883 A2.5,2.5 0 0 1 89.5025,101.4883" fill="#F1F1F1" style="stroke:#181818;stroke-width:0.5;"/><line style="stroke:#181818;stroke-width:0.5;" x1="87.0025" x2="140.0025" y1="122.4883" y2="122.4883"/><text fill="#000000" font-family="sans-serif" font-size="14" lengthAdjust="spacing" textLength="76.3574" x="97.0025" y="143.0234">workflows/</text><text fill="#000000" font-family="sans-serif" font-size="14" lengthAdjust="spacing" textLength="116.7646" x="97.0025" y="159.5117">shared JSON defs</text></g><!--entity queue--><g class="entity" data-qualified-name="broker.queue" data-source-line="7" id="ent0003"><rect fill="#F1F1F1" height="62.9766" rx="2.5" ry="2.5" style="stroke:#181818;stroke-width:0.5;" width="233.6484" x="88.5025" y="299.4883"/><rect fill="#F1F1F1" height="10" style="stroke:#181818;stroke-width:0.5;" width="15" x="302.151" y="304.4883"/><rect fill="#F1F1F1" height="2" style="stroke:#181818;stroke-width:0.5;" width="4" x="300.151" y="306.4883"/><rect fill="#F1F1F1" height="2" style="stroke:#181818;stroke-width:0.5;" width="4" x="300.151" y="310.4883"/><text fill="#000000" font-family="sans-serif" font-size="14" lengthAdjust="spacing" textLength="69.7129" x="103.5025" y="333.0234">Queue API</text><text fill="#000000" font-family="sans-serif" font-size="14" lengthAdjust="spacing" textLength="193.6484" x="103.5025" y="349.5117">:5001 mTLS &#183; :5080 callback</text></g><!--entity proc--><g class="entity" data-qualified-name="broker.proc" data-source-line="8" id="ent0004"><rect fill="#F1F1F1" height="62.9766" rx="2.5" ry="2.5" style="stroke:#181818;stroke-width:0.5;" width="201.9023" x="340.5025" y="299.4883"/><rect fill="#F1F1F1" height="10" style="stroke:#181818;stroke-width:0.5;" width="15" x="522.4049" y="304.4883"/><rect fill="#F1F1F1" height="2" style="stroke:#181818;stroke-width:0.5;" width="4" x="520.4049" y="306.4883"/><rect fill="#F1F1F1" height="2" style="stroke:#181818;stroke-width:0.5;" width="4" x="520.4049" y="310.4883"/><text fill="#000000" font-family="sans-serif" font-size="14" lengthAdjust="spacing" textLength="65.6387" x="355.5025" y="333.0234">Processor</text><text fill="#000000" font-family="sans-serif" font-size="14" lengthAdjust="spacing" textLength="161.9023" x="355.5025" y="349.5117">(MassTransit consumer)</text></g><!--entity elsaserver--><g class="entity" data-qualified-name="elsa.elsaserver" data-source-line="14" id="ent0007"><rect fill="#F1F1F1" height="62.9766" rx="2.5" ry="2.5" style="stroke:#181818;stroke-width:0.5;" width="239.5889" x="485.5025" y="105.4883"/><rect fill="#F1F1F1" height="10" style="stroke:#181818;stroke-width:0.5;" width="15" x="705.0914" y="110.4883"/><rect fill="#F1F1F1" height="2" style="stroke:#181818;stroke-width:0.5;" width="4" x="703.0914" y="112.4883"/><rect fill="#F1F1F1" height="2" style="stroke:#181818;stroke-width:0.5;" width="4" x="703.0914" y="116.4883"/><text fill="#000000" font-family="sans-serif" font-size="14" lengthAdjust="spacing" textLength="72.7754" x="500.5025" y="139.0234">Elsa Server</text><text fill="#000000" font-family="sans-serif" font-size="14" lengthAdjust="spacing" textLength="199.5889" x="500.5025" y="155.5117">broker-dispatch + workflows</text></g><!--entity studio--><g class="entity" data-qualified-name="elsa.studio" data-source-line="15" id="ent0008"><rect fill="#F1F1F1" height="62.9766" rx="2.5" ry="2.5" style="stroke:#181818;stroke-width:0.5;" width="113.8555" x="353.5025" y="105.4883"/><rect fill="#F1F1F1" height="10" style="stroke:#181818;stroke-width:0.5;" width="15" x="447.358" y="110.4883"/><rect fill="#F1F1F1" height="2" style="stroke:#181818;stroke-width:0.5;" width="4" x="445.358" y="112.4883"/><rect fill="#F1F1F1" height="2" style="stroke:#181818;stroke-width:0.5;" width="4" x="445.358" y="116.4883"/><text fill="#000000" font-family="sans-serif" font-size="14" lengthAdjust="spacing" textLength="73.8555" x="368.5025" y="139.0234">Elsa Studio</text><text fill="#000000" font-family="sans-serif" font-size="14" lengthAdjust="spacing" textLength="48.6924" x="368.5025" y="155.5117">:13000</text></g><g class="link" data-entity-1="ent0001" data-entity-2="ent0003" data-link-type="dependency" id="lnk10"><polygon fill="#181818" points="125.9742,299.4275,119.8919,291.6812,121.5554,297.0879,116.1486,298.7514,125.9742,299.4275" style="stroke:#181818;stroke-width:1;stroke-linejoin:miter;stroke-miterlimit:10;"/><path d="M38.8221,183.8793 C39.1402,201.1635 42.1641,220.2957 51.5025,235.4883 C68.7502,263.5482 93.3377,282.1482 121.5554,297.0879" fill="none" style="stroke:#181818;stroke-width:1;"/><text fill="#000000" font-family="sans-serif" font-size="13" lengthAdjust="spacing" textLength="145.666" x="53.5025" y="223.5566">1. submit / poll (mTLS)</text></g><g class="link" data-entity-1="ent0003" data-entity-2="ent0005" data-link-type="dependency" id="lnk11"><polygon fill="#181818" points="94.7979,431.414,86.7926,425.6769,89.9012,430.403,85.175,433.5116,94.7979,431.414" style="stroke:#181818;stroke-width:1;stroke-linejoin:miter;stroke-miterlimit:10;"/><path d="M88.4583,339.3192 C34.0096,347.3938 -13.2597,364.2748 14.5025,399.4883 C25.5841,413.5441 53.7601,422.9412 89.9012,430.403" fill="none" style="stroke:#181818;stroke-width:1;"/><text fill="#000000" font-family="sans-serif" font-size="13" lengthAdjust="spacing" textLength="174.1162" x="16.5025" y="395.0566">2. RequestRecord + outbox</text></g><g class="link" data-entity-1="ent0005" data-entity-2="ent0004" data-link-type="dependency" id="lnk12"><polygon fill="#181818" points="438.1804,362.8251,432.2972,370.7237,437.0796,367.7025,440.1009,372.4849,438.1804,362.8251" style="stroke:#181818;stroke-width:1;stroke-linejoin:miter;stroke-miterlimit:10;"/><path d="M334.2765,429.6819 C371.3016,422.0292 405.9404,411.9432 419.5025,399.4883 C429.7608,390.0675 434.1487,380.6892 437.0796,367.7025" fill="none" style="stroke:#181818;stroke-width:1;"/><text fill="#000000" font-family="sans-serif" font-size="13" lengthAdjust="spacing" textLength="160.9893" x="434.5025" y="395.0566">3. deliver ISubmitRequest</text></g><g class="link" data-entity-1="ent0004" data-entity-2="ent0007" data-link-type="dependency" id="lnk13"><polygon fill="#181818" points="603.6248,168.9087,598.5442,177.346,603.0075,173.8705,606.483,178.3337,603.6248,168.9087" style="stroke:#181818;stroke-width:1;stroke-linejoin:miter;stroke-miterlimit:10;"/><path d="M507.0798,299.2828 C533.8231,283.6864 562.793,262.3031 581.5025,235.4883 C595.1683,215.9022 600.4635,194.3179 603.0075,173.8705" fill="none" style="stroke:#181818;stroke-width:1;"/><text fill="#000000" font-family="sans-serif" font-size="13" lengthAdjust="spacing" textLength="155.7524" x="645.4308" y="216.0566">4. POST broker-dispatch</text><text fill="#000000" font-family="sans-serif" font-size="13" lengthAdjust="spacing" textLength="249.6089" x="598.5025" y="231.3672">{definitionId, message, callback, secret}</text></g><g class="link" data-entity-1="ent0007" data-entity-2="ent0007" data-link-type="dependency" id="lnk14"><polygon fill="#181818" points="725.6879,148.9084,735.3493,150.8206,730.5643,147.8035,733.5814,143.0184,725.6879,148.9084" style="stroke:#181818;stroke-width:1;stroke-linejoin:miter;stroke-miterlimit:10;"/><path d="M725.6879,125.0681 C736.6239,127.5461 743.5025,131.5195 743.5025,136.9883 C743.5025,142.457 741.5003,145.3255 730.5643,147.8035" fill="none" style="stroke:#181818;stroke-width:1;"/><text fill="#000000" font-family="sans-serif" font-size="13" lengthAdjust="spacing" textLength="176.1094" x="745.5025" y="134.5566">5. DispatchWorkflow(target)</text><text fill="#000000" font-family="sans-serif" font-size="13" lengthAdjust="spacing" textLength="120.1675" x="773.4735" y="149.8672">WaitForCompletion</text></g><g class="link" data-entity-1="ent0007" data-entity-2="ent0003" data-link-type="dependency" id="lnk15"><polygon fill="#181818" points="239.3777,299.3237,248.8689,296.6936,243.2385,296.1466,243.7855,290.5163,239.3777,299.3237" style="stroke:#181818;stroke-width:1;stroke-linejoin:miter;stroke-miterlimit:10;"/><path d="M512.1084,168.5095 C493.4311,177.2877 474.858,188.186 459.5025,201.4883 C446.0782,213.1177 453.6807,226.2644 438.5025,235.4883 C418.1259,247.8712 353.9966,235.5788 331.5025,243.4883 C297.0844,255.5905 267.1504,276.4693 243.2385,296.1466" fill="none" style="stroke:#181818;stroke-width:1;"/><text fill="#000000" font-family="sans-serif" font-size="13" lengthAdjust="spacing" textLength="108.5259" x="464.6478" y="216.0566">6. callback :5080</text><text fill="#000000" font-family="sans-serif" font-size="13" lengthAdjust="spacing" textLength="114.8164" x="461.5025" y="231.3672">X-Callback-Secret</text></g><g class="link" data-entity-1="ent0003" data-entity-2="ent0005" data-link-type="dependency" id="lnk16"><polygon fill="#181818" points="212.1344,417.0972,215.4231,407.8136,211.746,412.1123,207.4473,408.4351,212.1344,417.0972" style="stroke:#181818;stroke-width:1;stroke-linejoin:miter;stroke-miterlimit:10;"/><path d="M207.8907,362.6369 C209.2031,379.4783 210.4368,395.3117 211.746,412.1123" fill="none" style="stroke:#181818;stroke-width:1;"/><text fill="#000000" font-family="sans-serif" font-size="13" lengthAdjust="spacing" textLength="200.313" x="213.5025" y="395.0566">7. RequestRecord &#8594; Completed</text></g><g class="link" data-entity-1="ent0009" data-entity-2="ent0004" data-link-type="dependency" id="lnk17"><polygon fill="#181818" points="412.3999,299.1187,408.6537,290.0101,408.7839,295.6655,403.1286,295.7957,412.3999,299.1187" style="stroke:#181818;stroke-width:1;stroke-linejoin:miter;stroke-miterlimit:10;"/><path d="M182.8432,172.4925 C200.6545,199.7551 223.1546,233.5451 226.5025,235.4883 C246.7416,247.2351 309.6954,234.9998 331.5025,243.4883 C362.5191,255.5616 388.2254,276.0324 408.7839,295.6655" fill="none" style="stroke:#181818;stroke-width:1;stroke-dasharray:7,7;"/><text fill="#000000" font-family="sans-serif" font-size="13" lengthAdjust="spacing" textLength="208.3555" x="228.5025" y="223.5566">scan: requestType &#8594; definitionId</text></g><g class="link" data-entity-1="ent0009" data-entity-2="ent0007" data-link-type="dependency" id="lnk18"><polygon fill="#181818" points="569.9606,105.2897,565.4813,96.5184,566.0741,102.1441,560.4484,102.7368,569.9606,105.2897" style="stroke:#181818;stroke-width:1;stroke-linejoin:miter;stroke-miterlimit:10;"/><path d="M196.1481,101.3061 C219.1026,80.9397 250.7808,57.3577 284.0025,46.4883 C365.3265,19.881 395.6675,21.4307 476.5025,49.4883 C511.2717,61.5565 541.6193,82.3515 566.0741,102.1441" fill="none" style="stroke:#181818;stroke-width:1;stroke-dasharray:7,7;"/><text fill="#000000" font-family="sans-serif" font-size="13" lengthAdjust="spacing" textLength="147.6021" x="286.0025" y="37.0566">mount /app/Workflows</text></g><g class="link" data-entity-1="ent0008" data-entity-2="ent0009" data-link-type="dependency" id="lnk19"><polygon fill="#181818" points="234.1586,136.9883,243.1586,140.9883,239.1586,136.9883,243.1586,132.9883,234.1586,136.9883" style="stroke:#181818;stroke-width:1;stroke-linejoin:miter;stroke-miterlimit:10;"/><path d="M353.2259,136.9883 C317.8789,136.9883 277.1828,136.9883 239.1586,136.9883" fill="none" style="stroke:#181818;stroke-width:1;stroke-dasharray:7,7;"/><text fill="#000000" font-family="sans-serif" font-size="13" lengthAdjust="spacing" textLength="98.0903" x="244.7525" y="129.5566">author / export</text></g><?plantuml-src RLDDRzf04BtlhvZw12eOA4q_E5HgQIfHfGc9aUZ1by5Um6Azw-okIr0KgQV-WAh_fVV-bFoIpku28IGNIpjwyzwyD-CNbSP5YI1meseBfkGM9J9RMC612uFjcLOhhk7-vnyufJUyX4-XalDAg4t9fMKCCwiqH4DHq3EL3SFr3wwR4Q21p1SPaohd41roDkBpqmcy3x1jxPO1PAgibAGcY2vhNdFuE1wbSd3IxVQWd9mbyEylqEjT5p8KOeRPoZDSE-pZzh5M6JT6QPhf6nepqIXDOGaYJLtk9gm8nUuOoz7Y30rDcLoUGU8zf1Bhd3f8aWAQgPjE8UdhtjQHLKfRJsAknSwZpwaF3LAnMCYTZBD-xCz3TqeXWdPUc0fjjgIerqglvaAjpPuW9FiSYQKv5SNKwtUxtJ2IBpbdSoLo2ZVQytLIQPQeUGvVaujpskKyIApdZ8M5GRlz8KGA0uXwCPXwLb8G7QYK4D1mYsX6B20SbW9mo5SnN76g6dl5CwLpSX62YvX3EAJBsq7xCGcBWlp0AF7isyw8UOZ3FdXs7QzZ65ya4pXAAfMtvA2GXIsK7EKjA6dfkE2j_O6qmF1CStiNiGF6fm8dCNpUaawtMJKiwWMtpLHEiR1Vb1vIye8xgITa-xpUn7lfSAgf_DuURYljnC_oJ7XlZyEx__KRjdeyZnXRpo6E7n8q6Se1wD0osLJSDnnc4UrQ7liiLKqhxc1LTQRx6sFXO3oSkWY6jLtIZzq1VkCF_Jy0?></g></svg>